#!OML:ASF X:\für Bonn\!DataBase\2005_08_12_Daniel\c3d\Daniel.ASF
:FULLY-SPECIFIED
:DEGREES
32
root -25.7224 16.9019 25.5546 -191.911 76.67 525.528
lowerback 12.2737 -4.09088 -9.78733
upperback 6.0583 -6.07595 -3.38098
thorax 0.231156 -3.02109 2.59302
lowerneck 2.9953 5.53225 -7.1096
upperneck 4.64557 7.55702 -5.19183
head 0.887584 3.6811 -0.451908
rclavicle 5.12864e-014 1.59028e-014
rhumerus -49.1299 -6.53295 -87.6585
rradius 24.9509
rwrist 10.1754
rhand -17.6966 23.1427
rfingers 7.12502
rthumb 8.56312 -6.66366
lclavicle 5.12864e-014 1.59028e-014
lhumerus -38.8666 8.88538 92.2156
lradius 85.1088
lwrist 13.5895
lhand -15.9678 -8.37813
lfingers 7.12502
lthumb 10.2313 21.353
rfemur -33.8232 -1.01939 18.9117
rtibia 61.6684
rfoot -22.2261 6.57177
rtoes -11.3932
lfemur 5.61457 -1.92814 -28.6637
ltibia 29.5745
lfoot -37.1363 1.82643
ltoes -1.35602
33
root -25.652 16.9098 25.5244 -191.358 77.0108 525.939
lowerback 12.2481 -4.20467 -9.60982
upperback 6.08238 -6.2046 -3.38942
thorax 0.262205 -3.08425 2.49672
lowerneck 2.86218 5.61205 -7.2863
upperneck 4.64709 7.67783 -5.29707
head 0.907572 3.73568 -0.452845
rclavicle 9.14409e-015 3.65764e-014
rhumerus -50.0369 -5.7181 -88.342
rradius 25.5849
rwrist 8.64949
rhand -18.0384 23.2549
rfingers 7.12502
rthumb 8.23329 -6.5647
lclavicle 9.14409e-015 3.65764e-014
lhumerus -38.8652 8.79138 92.1492
lradius 86.2733
lwrist 13.4091
lhand -16.1189 -8.539
lfingers 7.12502
lthumb 10.0855 21.1993
rfemur -34.4962 -1.47841 19.297
rtibia 62.021
rfoot -21.9022 6.54642
rtoes -12.0485
lfemur 5.88331 -1.88449 -28.6031
ltibia 29.2352
lfoot -37.0176 2.06137
ltoes -1.06412
34
root -25.5807 16.9143 25.4951 -190.87 77.3289 526.294
lowerback 12.2749 -4.32351 -9.46932
upperback 6.08675 -6.352 -3.39621
thorax 0.250087 -3.15513 2.42938
lowerneck 2.81134 5.70309 -7.42337
upperneck 4.5644 7.80126 -5.44295
head 0.890974 3.79688 -0.476366
rclavicle 1.15295e-014 -1.11319e-014
rhumerus -50.9451 -4.85626 -89.0408
rradius 26.2783
rwrist 7.27227
rhand -18.4749 23.395
rfingers 7.12502
rthumb 7.81202 -6.44068
lclavicle 1.15295e-014 -1.11319e-014
lhumerus -38.9099 8.76189 92.0706
lradius 87.4912
lwrist 13.2812
lhand -16.1946 -8.75904
lfingers 7.12502
lthumb 10.0124 20.9828
rfemur -35.1443 -1.83522 19.6229
rtibia 62.3134
rfoot -21.5584 6.56069
rtoes -12.5235
lfemur 6.1478 -1.82697 -28.565
ltibia 28.9218
lfoot -36.9 2.33171
ltoes -0.99639
35
root -25.5059 16.9197 25.4655 -190.042 77.6199 526.949
lowerback 12.2785 -4.43141 -9.22334
upperback 6.07786 -6.47412 -3.41192
thorax 0.218369 -3.21062 2.29318
lowerneck 2.61743 5.76589 -7.50309
upperneck 4.66228 7.91399 -5.50894
head 0.952781 3.84323 -0.476362
rclavicle 2.54444e-014 2.38542e-014
rhumerus -51.8457 -4.11343 -89.7571
rradius 27.0037
rwrist 5.91483
rhand -18.9181 23.493
rfingers 7.12502
rthumb 7.38419 -6.3581
lclavicle 2.54444e-014 2.38542e-014
lhumerus -38.9902 8.58227 91.9556
lradius 88.7276
lwrist 13.0892
lhand -16.3172 -8.96502
lfingers 7.12502
lthumb 9.89417 20.7825
rfemur -35.7997 -2.18231 19.9936
rtibia 62.5241
rfoot -21.1792 6.67559
rtoes -13.2395
lfemur 6.36067 -1.82137 -28.4637
ltibia 28.6391
lfoot -36.7787 2.56961
ltoes -1.0504
36
root -25.4276 16.9207 25.4382 -189.314 77.8768 527.528
lowerback 12.3159 -4.55398 -9.03547
upperback 6.05957 -6.62601 -3.41676
thorax 0.16945 -3.28141 2.20577
lowerneck 2.47609 5.87349 -7.51551
upperneck 4.70204 8.08341 -5.68474
head 0.995212 3.92148 -0.522781
rclavicle 1.23246e-014 8.26944e-014
rhumerus -52.7897 -3.20586 -90.5372
rradius 27.8317
rwrist 4.59287
rhand -19.3844 23.5464
rfingers 7.12502
rthumb 6.93405 -6.32
lclavicle 1.23246e-014 8.26944e-014
lhumerus -39.1239 8.45905 91.811
lradius 89.977
lwrist 12.9999
lhand -16.3187 -9.11571
lfingers 7.12502
lthumb 9.8927 20.6319
rfemur -36.3913 -2.46949 20.2995
rtibia 62.7056
rfoot -20.8153 6.87043
rtoes -13.5391
lfemur 6.61418 -1.78897 -28.3717
ltibia 28.3831
lfoot -36.7048 2.76888
ltoes -1.27591
37
root -25.3451 16.923 25.411 -188.352 78.0669 528.334
lowerback 12.3301 -4.68975 -8.82626
upperback 6.07532 -6.7859 -3.40031
thorax 0.169069 -3.35859 2.12555
lowerneck 2.29541 5.95604 -7.5462
upperneck 4.66554 8.21363 -5.82379
head 1.01825 3.98218 -0.555096
rclavicle 1.15295e-014 4.13472e-014
rhumerus -53.7487 -2.19031 -91.3928
rradius 28.7933
rwrist 3.13023
rhand -19.8134 23.6795
rfingers 7.12502
rthumb 6.51994 -6.20012
lclavicle 1.15295e-014 4.13472e-014
lhumerus -39.2321 8.212 91.6444
lradius 91.314
lwrist 13.014
lhand -16.3314 -9.19741
lfingers 7.12502
lthumb 9.88045 20.5507
rfemur -36.9438 -2.74039 20.625
rtibia 62.8378
rfoot -20.4788 7.00666
rtoes -13.9302
lfemur 6.86356 -1.8028 -28.2238
ltibia 28.1418
lfoot -36.6057 2.90393
ltoes -1.46651
38
root -25.2588 16.9248 25.3845 -187.345 78.1986 529.141
lowerback 12.2947 -4.83559 -8.58726
upperback 6.08854 -6.95099 -3.41595
thorax 0.184242 -3.43757 1.99239
lowerneck 2.0706 6.04386 -7.41512
upperneck 4.71646 8.36834 -6.02427
head 1.08558 4.05168 -0.627572
rclavicle -2.78299e-014 1.74931e-014
rhumerus -54.6962 -1.43437 -92.1267
rradius 29.7738
rwrist 1.94794
rhand -20.2642 23.8095
rfingers 7.12502
rthumb 6.08479 -6.08309
lclavicle -2.78299e-014 1.74931e-014
lhumerus -39.3212 7.93719 91.4506
lradius 92.605
lwrist 12.9235
lhand -16.3271 -9.25853
lfingers 7.12502
lthumb 9.88459 20.4894
rfemur -37.5128 -2.98563 20.9045
rtibia 62.949
rfoot -20.1829 7.0626
rtoes -14.052
lfemur 7.09304 -1.85449 -28.0902
ltibia 27.902
lfoot -36.4733 3.08041
ltoes -1.61617
39
root -25.1701 16.9242 25.3588 -186.259 78.2755 530.094
lowerback 12.3562 -5.00269 -8.39489
upperback 6.09159 -7.1602 -3.37507
thorax 0.152991 -3.53878 1.95645
lowerneck 1.8967 6.14933 -7.33292
upperneck 4.73606 8.53942 -6.23853
head 1.1342 4.13104 -0.699004
rclavicle -1.25632e-013 -1.74931e-014
rhumerus -55.7275 -0.58805 -92.7755
rradius 30.8399
rwrist 0.873565
rhand -20.7564 24.1261
rfingers 7.12502
rthumb 5.60956 -5.77962
lclavicle -1.25632e-013 -1.74931e-014
lhumerus -39.4497 7.70815 91.2618
lradius 93.9026
lwrist 12.8753
lhand -16.335 -9.19366
lfingers 7.12502
lthumb 9.87701 20.5547
rfemur -37.9507 -3.18547 21.1745
rtibia 63.0166
rfoot -20.0313 6.97111
rtoes -14.0726
lfemur 7.41604 -1.91697 -27.9171
ltibia 27.6278
lfoot -36.3668 3.18234
ltoes -2.14738
40
root -25.0787 16.9229 25.3352 -185.179 78.2921 531.005
lowerback 12.3917 -5.16423 -8.17502
upperback 6.08265 -7.35763 -3.36244
thorax 0.113373 -3.6325 1.87447
lowerneck 1.73975 6.25218 -7.18374
upperneck 4.75802 8.70534 -6.44715
head 1.18401 4.20866 -0.779508
rclavicle 5.24792e-014 1.74931e-014
rhumerus -56.7851 0.160175 -93.4374
rradius 31.9667
rwrist -0.340069
rhand -21.1421 24.5185
rfingers 7.12502
rthumb 5.23717 -5.39679
lclavicle 5.24792e-014 1.74931e-014
lhumerus -39.5644 7.3485 91.0303
lradius 95.1518
lwrist 12.9116
lhand -16.2974 -9.17443
lfingers 7.12502
lthumb 9.9132 20.5722
rfemur -38.3997 -3.32614 21.3878
rtibia 63.0417
rfoot -19.931 6.74508
rtoes -14.2322
lfemur 7.71691 -1.9594 -27.7254
ltibia 27.3379
lfoot -36.189 3.22078
ltoes -2.39409
41
root -24.983 16.9258 25.3109 -184.162 78.3409 531.865
lowerback 12.4172 -5.32001 -7.99193
upperback 6.08261 -7.54891 -3.34149
thorax 0.0933171 -3.72491 1.81871
lowerneck 1.58452 6.38079 -7.0562
upperneck 4.73323 8.89778 -6.62121
head 1.21685 4.30115 -0.84692
rclavicle 1.11319e-014 9.54166e-015
rhumerus -57.8709 0.931313 -94.068
rradius 33.1687
rwrist -1.53339
rhand -21.617 24.9615
rfingers 7.12502
rthumb 4.77858 -4.96463
lclavicle 1.11319e-014 9.54166e-015
lhumerus -39.7162 6.99055 90.7766
lradius 96.4388
lwrist 12.8784
lhand -16.2276 -8.99683
lfingers 7.12502
lthumb 9.98063 20.7465
rfemur -38.7996 -3.36017 21.5578
rtibia 63.0194
rfoot -19.9218 6.34847
rtoes -14.4589
lfemur 8.0629 -2.08244 -27.5847
ltibia 27.0171
lfoot -36.0297 3.34919
ltoes -2.63774
42
root -24.8852 16.9287 25.2868 -183.164 78.3213 532.702
lowerback 12.4484 -5.48554 -7.78958
upperback 6.08217 -7.75114 -3.33356
thorax 0.0651509 -3.82163 1.74135
lowerneck 1.44576 6.48271 -6.86342
upperneck 4.72392 9.05794 -6.84549
head 1.25815 4.37774 -0.940105
rclavicle 1.59028e-015 -3.18055e-014
rhumerus -58.9455 1.60936 -94.651
rradius 34.3787
rwrist -2.71549
rhand -22.0156 25.6304
rfingers 7.12502
rthumb 4.39371 -4.30401
lclavicle 1.59028e-015 -3.18055e-014
lhumerus -39.7858 6.58167 90.5064
lradius 97.564
lwrist 12.8061
lhand -16.2555 -8.9833
lfingers 7.12502
lthumb 9.9537 20.7614
rfemur -39.1732 -3.34065 21.6759
rtibia 62.9407
rfoot -19.8901 5.84178
rtoes -14.3467
lfemur 8.40167 -2.14057 -27.3991
ltibia 26.6893
lfoot -35.8031 3.35059
ltoes -3.1033
43
root -24.7835 16.9327 25.2628 -182.261 78.32 533.417
lowerback 12.4414 -5.63625 -7.61448
upperback 6.07312 -7.93422 -3.32983
thorax 0.0491395 -3.90988 1.66919
lowerneck 1.33048 6.60494 -6.65942
upperneck 4.67735 9.23484 -7.01812
head 1.28229 4.46502 -1.02068
rclavicle -4.77083e-015 -4.77083e-014
rhumerus -60.0565 2.21497 -95.1898
rradius 35.6279
rwrist -3.93599
rhand -22.4162 26.4748
rfingers 7.12502
rthumb 4.00688 -3.46726
lclavicle -4.77083e-015 -4.77083e-014
lhumerus -39.8671 6.11602 90.2027
lradius 98.6515
lwrist 12.8095
lhand -16.2408 -9.08604
lfingers 7.12502
lthumb 9.96789 20.6579
rfemur -39.5337 -3.23079 21.7269
rtibia 62.8264
rfoot -19.8688 5.27792
rtoes -14.1893
lfemur 8.73766 -2.21965 -27.2629
ltibia 26.356
lfoot -35.5975 3.39943
ltoes -3.3071
44
root -24.68 16.935 25.239 -181.448 78.2817 534.064
lowerback 12.4629 -5.79999 -7.47087
upperback 6.06855 -8.1393 -3.31279
thorax 0.0302324 -4.00968 1.63229
lowerneck 1.25652 6.73673 -6.41402
upperneck 4.58288 9.42171 -7.28629
head 1.29263 4.56028 -1.13956
rclavicle -1.03368e-014 -3.65764e-014
rhumerus -61.1498 2.78351 -95.6172
rradius 36.9218
rwrist -5.0104
rhand -22.7431 27.2572
rfingers 7.12502
rthumb 3.69122 -2.6906
lclavicle -1.03368e-014 -3.65764e-014
lhumerus -39.9928 5.68108 89.8871
lradius 99.6762
lwrist 12.7526
lhand -16.2648 -9.24522
lfingers 7.12502
lthumb 9.9447 20.4999
rfemur -39.8409 -3.09297 21.7208
rtibia 62.6653
rfoot -19.8458 4.68914
rtoes -13.8172
lfemur 9.05998 -2.35194 -27.139
ltibia 26.0705
lfoot -35.3527 3.39137
ltoes -3.61388
45
root -24.5749 16.9353 25.2162 -180.592 78.2975 534.765
lowerback 12.4729 -5.92409 -7.33177
upperback 6.06883 -8.29113 -3.28051
thorax 0.0206578 -4.08394 1.60702
lowerneck 1.13142 6.86186 -6.27412
upperneck 4.53185 9.60203 -7.44511
head 1.31504 4.64853 -1.20561
rclavicle 1.35969e-013 -6.36111e-015
rhumerus -62.2584 3.3664 -96.0581
rradius 38.3003
rwrist -6.27647
rhand -23.09 27.99
rfingers 7.12502
rthumb 3.35617 -1.96338
lclavicle 1.35969e-013 -6.36111e-015
lhumerus -40.1345 5.146 89.5713
lradius 100.635
lwrist 12.7271
lhand -16.3971 -9.42664
lfingers 7.12502
lthumb 9.81701 20.3245
rfemur -40.1207 -2.8343 21.6968
rtibia 62.4686
rfoot -19.8029 4.07068
rtoes -12.8184
lfemur 9.3719 -2.39249 -26.9809
ltibia 25.8167
lfoot -35.1739 3.37245
ltoes -3.91003
46
root -24.468 16.9361 25.192 -179.618 78.2879 535.603
lowerback 12.5324 -6.04273 -7.15327
upperback 6.05756 -8.43714 -3.24357
thorax -0.0340189 -4.15299 1.57208
lowerneck 1.14922 6.97554 -6.04672
upperneck 4.32054 9.7408 -7.67083
head 1.27071 4.72759 -1.31482
rclavicle -5.96354e-014 -1.59028e-014
rhumerus -63.355 3.82893 -96.4033
rradius 39.6758
rwrist -7.31964
rhand -23.4708 28.7126
rfingers 7.12502
rthumb 2.98846 -1.24617
lclavicle -5.96354e-014 -1.59028e-014
lhumerus -40.2967 4.56705 89.2477
lradius 101.452
lwrist 12.66
lhand -16.5115 -9.72997
lfingers 7.12502
lthumb 9.70667 20.0264
rfemur -40.3621 -2.60325 21.6817
rtibia 62.2394
rfoot -19.7522 3.41045
rtoes -12.2312
lfemur 9.67338 -2.51421 -26.8221
ltibia 25.6147
lfoot -34.9393 3.40463
ltoes -4.12886
